<?xml version="1.0" encoding="UTF-8"?>
<svg width="128px" height="80px" viewBox="0 0 128 80" version="1.1" xmlns="http://www.w3.org/2000/svg" xmlns:xlink="http://www.w3.org/1999/xlink">
    <!-- Generator: Sketch 46.2 (44496) - http://www.bohemiancoding.com/sketch -->
    <title>btn_h5_laststep_pressed</title>
    <desc>Created with Sketch.</desc>
    <defs>
        <linearGradient x1="50%" y1="100%" x2="50%" y2="-119.198004%" id="linearGradient-1">
            <stop stop-color="#D2484A" offset="0%"></stop>
            <stop stop-color="#F89335" offset="100%"></stop>
        </linearGradient>
    </defs>
    <g id="Symbols" stroke="none" stroke-width="1" fill="none" fill-rule="evenodd">
        <g id="btn_h5_laststep_pressed">
            <g id="btn_h5_nextstep" transform="translate(64.500000, 40.000000) scale(-1, 1) translate(-64.500000, -40.000000) ">
                <path d="M39.0915871,14.8603568 L126,14.8603568 C127.656854,14.8603568 129,16.2035026 129,17.8603568 L129,61.8603568 C129,63.5172111 127.656854,64.8603568 126,64.8603568 L39.0915871,64.8603568 L39.0915871,73.720702 C39.0915871,76.4821257 36.8530109,78.720702 34.0915871,78.720702 C32.6905011,78.720702 31.3536951,78.1328431 30.4066822,77.1002694 L1.78080413,41.8880972 C0.728728066,40.7409681 0.728728066,38.9797455 1.78080413,37.8326164 L30.4066822,2.62044426 C32.2731657,0.585327464 35.4360377,0.448623193 37.4711545,2.31510672 C38.5037282,3.26211964 39.0915871,4.59892563 39.0915871,6.00001164 L39.0915871,14.8603568 Z" id="Path" fill="#613C0B" transform="translate(64.995874, 39.860342) scale(-1, 1) translate(-64.995874, -39.860342) "></path>
                <path d="M36.0915871,6.00001164 C36.0915871,5.43957724 35.8564436,4.90485484 35.4434141,4.52604967 C34.6293674,3.77945626 33.3642186,3.83413797 32.6176251,4.64818469 L3.99174708,39.8603568 L32.6176251,75.0725289 C32.9964303,75.4855584 33.5311527,75.720702 34.0915871,75.720702 C35.1961566,75.720702 36.0915871,74.8252715 36.0915871,73.720702 L36.0915871,61.8603568 L126,61.8603568 L126,17.8603568 L36.0915871,17.8603568 L36.0915871,6.00001164 Z" fill="#B63E49" fill-rule="nonzero" transform="translate(64.995874, 39.860351) scale(-1, 1) translate(-64.995874, -39.860351) "></path>
                <path d="M33.4677383,6.00001164 C33.4677383,5.43957724 33.2325948,4.90485484 32.8195653,4.52604967 C32.0055185,3.77945626 30.7403697,3.83413797 29.9937763,4.64818469 L4.10984707,36.8500355 L29.9937763,69.0725289 C30.3725815,69.4855584 30.9073039,69.720702 31.4677383,69.720702 C32.5723078,69.720702 33.4677383,68.8252715 33.4677383,67.720702 L33.4677383,55.8603568 L123.376151,55.8603568 L123.376151,17.8603568 L33.4677383,17.8603568 L33.4677383,6.00001164 Z" fill="url(#linearGradient-1)" fill-rule="nonzero" transform="translate(63.742999, 36.860351) scale(-1, 1) translate(-63.742999, -36.860351) "></path>
            </g>
        </g>
    </g>
</svg>